# xmcd
#
# Track frame offsets: 
#        150
#        15807
#        35697
#        53935
#        69294
#        93023
#        106594
#        124693
#        143732
#        164952
#        191342
#        217022
#        234004
#        245758
#        257401
#        270865
#        286314
#        303895
#        318477
#        334227
#
# Disc length: 4636 seconds
#
# Revision: 1
# Processed by: cddbd v1.5.2PL0 Copyright (c) Steve Scherf et al.
# Submitted via: ExactAudioCopy v1.1
#
DISCID=0b121a14
DTITLE=Chet Baker - Jazz Manifesto
DYEAR=2008
DGENRE=Jazz
TTITLE0=A Foggy Day
TTITLE1=Mythe
TTITLE2=Tenderly
TTITLE3=V-Line
TTITLE4=To Mickey's Memory
TTITLE5=Worrying The Life Out Of Me
TTITLE6=For Minors Only
TTITLE7=Summertime
TTITLE8=These Foolish Things
TTITLE9=I'll Remember April
TTITLE10=All The Things You Are
TTITLE11=There's A Small Hotel
TTITLE12=A Little Duet For Zoot And Chet
TTITLE13=Love
TTITLE14=Love Walked In
TTITLE15=Moonlight Becomes You
TTITLE16=Stella By Starlight
TTITLE17=I'm Glad There's You
TTITLE18=Isn't It Romantic
TTITLE19=Imagination
EXTD=YEAR: 2008
EXTT0=
EXTT1=
EXTT2=
EXTT3=
EXTT4=
EXTT5=
EXTT6=
EXTT7=
EXTT8=
EXTT9=
EXTT10=
EXTT11=
EXTT12=
EXTT13=
EXTT14=
EXTT15=
EXTT16=
EXTT17=
EXTT18=
EXTT19=
PLAYORDER=
